<svg version="1.1" id="clouds" class="clouds" xmlns="http://www.w3.org/2000/svg" xmlns:xlink="http://www.w3.org/1999/xlink" x="0px" y="0px"
	 width="700px" height="650px" viewBox="0 0 700 650" enable-background="new 0 0 700 650" xml:space="preserve">
<path d="M357.556,207.49c0.118-1.737-0.035-3.753-0.759-5.448c-0.65-1.526,0.354-4.293-0.892-5.713
	c-1.099-1.252-3.341-1.651-4.841-2.771c-1.35-1.008-2.141-3.315-3.773-4.181c-1.505-0.799-3.488-1.127-5.2-1.776
	c-1.606-0.609-3.53-0.715-5.29-1.17c-1.673-0.433-3.483-0.707-5.272-0.98c-1.7-0.26-3.501,0.892-5.146,0.799
	c-1.725-0.097-3.376-1.131-5.014-1.054c-1.737,0.082-3.498-0.087-5.105,0.177c-1.729,0.285-3.059,1.942-4.598,2.423
	c-1.691,0.528-4.103-0.729-5.513,0.016c-1.583,0.836-2.592,1.799-3.749,2.878c-1.849-0.465-3.234-1.238-5.201-1.544
	c-1.717-0.262-3.757,2.859-5.422,2.754c-1.735-0.109-3.369-3.501-5.035-3.456c-1.741,0.048-3.33,1.43-4.981,1.626
	c-1.65-0.912-3.202-2.267-5.1-2.917c-1.785-0.612-4.102,0.62-6.09,0.318c-1.575-0.243-2.968-2.996-4.488-3.023
	c-1.598-0.029-3.392,0.244-4.896,0.435c-1.59,0.202-3.069,1.591-4.517,2.018c-1.544,0.455-3.392,0.483-4.729,1.168
	c-1.438,0.736-1.913,4.023-3.055,4.994c-1.235-0.477-2.498-3.267-3.805-3.639c-1.266-0.36-3.022,1.431-4.375,1.222
	c-1.764-0.27-3.322-2.77-5.031-2.792c-1.785-0.023-3.688,0.318-5.381,0.546c-1.771,0.239-3.674,0.54-5.307,1.031
	c-1.714,0.516-3.416,1.462-4.936,2.232c-1.597,0.809-3.206,1.028-4.539,2.087c-1.678,0.001-2.684,2.429-4.232,2.575
	c-1.692,0.16-3.038,1.151-4.538,1.473c-1.694,0.363-3.837-1.372-5.235-0.818c-1.653,0.655-1.991,3.145-3.146,4.042
	c-1.413,1.098-4.163,0.896-4.676,2.311c-0.089-0.01,0.571,1.387,0.482,1.367c-1.818-0.278-3.547-0.154-5.32-0.274
	c-1.84-0.125-3.56-1.554-5.33-1.517c-1.852,0.039-3.589,0.777-5.341,0.984c-1.848,0.219-4.09-1.735-5.8-1.341
	c-1.824,0.421-3.627,1.397-5.261,2.004c-1.767,0.657-3.673,1.386-5.176,2.244c-1.646,0.94-2.917,2.685-4.193,3.844
	c-1.396,1.27-2.495,2.96-3.377,4.464c-0.924,1.576-1.386,3.492-1.663,5.292c-0.267,1.743,1.575,3.207,1.955,4.928
	c0.364,1.649,0.741,2.917,1.64,4.5c0.824,1.451-0.683,4.757,0.544,6.116c1.121,1.242,2.92,2.254,4.341,3.393
	c1.316,1.053,3.007,1.959,4.552,2.901c1.449,0.883,4.029-0.217,5.656,0.551c1.543,0.728,3.893,1.274,5.576,1.883
	c0.01,1.196-0.429,4.502-0.152,5.679c-1.254-0.487-3.15-2.215-4.474-2.594c-1.284-0.368-2.946,1.293-4.319,1.084
	c-1.787-0.274-3.303-1.828-5.039-1.849c-1.808-0.022-3.497,0.405-5.217,0.64c-1.792,0.244-3.154,1.544-4.815,2.044
	c-1.733,0.522-3.955-0.56-5.506,0.217c-1.618,0.811-2.216,3.012-3.588,4.073c-1.428,1.103-4.268,0.676-5.379,2.019
	c-1.139,1.377-0.109,4.332-0.859,5.928c-0.296-0.049-1.914-0.141-2.201-0.19c-1.755-0.269-3.373-0.674-5.054-0.725
	c-1.789-0.054-3.613-1.57-5.271-1.396c-1.801,0.19-3.231,2.142-4.818,2.579c-1.775,0.489-3.244,1.106-4.669,1.873
	c-1.646,0.885-4.353,0.464-5.409,1.67c-1.191,1.359-0.083,3.914-0.344,5.612c-0.257,1.687-0.874,3.248-0.14,4.885
	c0.652,1.452,2.386,3.114,3.673,4.443c-1.896,0.344-4.251,0.97-5.9,1.518c-1.86,0.618-3.29,1.617-4.767,2.471
	c-1.725,0.999-2.756,2.147-3.853,3.434c-1.251,1.468-3.388,2.34-3.661,4.129c-0.28,1.822,0.425,3.795,1.224,5.6
	c0.697,1.574,1.13,3.604,2.512,5.092c-0.168,0.228,0.744,1.236,0.595,1.474c-1.843,0.191-4.041-1.593-5.747-1.274
	c-1.836,0.343-3.304,1.991-4.954,2.476c-1.813,0.532-3.794,0.333-5.346,1.026c-1.75,0.782-3.922,0.938-5.289,1.912
	c-1.573,1.12-2.721,2.976-3.71,4.329c-1.098,1.502-2.818,3.329-3.089,5.091c-0.317,2.048,1.277,4.507,2.155,6.544
	c0.767,1.779,3.728,3.218,5.221,4.933c-1.166,1.082-4.263,2.495-5.307,4.521c-0.754,1.463-2.382,3.34-2.47,5.646
	c-0.062,1.648,0.759,3.747,1.258,5.955c0.375,1.663,2.276,2.802,3.028,4.349c0.736,1.516-0.197,4.222,0.884,5.583
	c1.039,1.308,3.748,1.191,5.089,2.319c1.271,1.067,2.504,2.147,4.035,3.021c1.436,0.819,2.58,2.458,4.233,3.079
	c1.545,0.58,3.043,2.108,4.77,2.493c1.611,0.359,3.635-0.709,5.397-0.538c1.644,0.159,3.381-0.032,5.15-0.051
	c1.653-0.018,3.049,0.234,4.808,0.05c0.038,1.64-0.642,3.205-0.22,4.795c0.416,1.562,2.98,2.389,3.736,3.871
	c0.73,1.431,0.616,3.39,1.636,4.716c0.977,1.271,2.44,2.178,3.659,3.327c1.166,1.101,3.23,0.979,4.596,1.944
	c1.311,0.928,1.587,3.476,3.063,4.26c1.419,0.754,3.401,0.328,4.958,0.932c1.5,0.583,3,0.994,4.612,1.421
	c1.557,0.412,2.986,1.324,4.634,1.577c1.819,0.278,3.618-0.267,5.389-0.206c1.84,0.062,3.58,0.531,5.343,0.373
	c1.836-0.165,3.587-0.365,5.313-0.754c1.801-0.405,3.602-0.616,5.25-1.246c1.728-0.66,3.68-0.888,5.203-1.774
	c1.599-0.93,2.033-3.663,3.364-4.818c1.334-0.539,3.999,0.775,5.204-0.112c1.151-0.846,1.593-2.719,2.592-3.843
	c0.949-1.067,1.535-2.516,2.318-3.8c0.833-0.465,1.582-2.21,2.851-3.225c1.158-0.926,4.247-0.656,4.45-1.977
	c0.192-1.243-2.103-2.445-2.369-3.735c-0.228-1.1,2.185-3.082,0.865-4.047c0.148-2.047-0.238-2.516-0.514-4.434
	c1.348,0.504,1.011,1.634,2.417,2.072c1.373,0.427,3.062,0.104,4.497,0.444c1.396,0.331,2.801,1.22,4.263,1.447
	c1.7,0.261,3.585-0.658,5.252-0.533c1.717,0.128,3.431-1.71,5.099-1.72c1.725-0.01,3.285-0.139,4.944-0.289
	c1.722-0.156,3.402,0.407,5.037,0.106c1.705-0.313,3.835,1.229,5.425,0.768c1.67-0.485,2.669-2.839,4.191-3.479
	c1.608-0.675,2.581-2.174,3.999-3.01c1.506-0.889,3.418-0.832,4.679-1.888c1.338-1.12,3.569-1.386,4.595-2.678
	c1.074-1.354,0.911-3.526,1.601-5.05c0.697-1.54,1.326-3.046,1.585-4.74c0.239-1.562,0.844-3.141,0.679-4.688
	c-0.164-1.536,0.402-3.48-0.126-4.979c-0.506-1.438-1.275-3.104-2.087-4.487c-0.77-1.311-3.986-1.907-5.004-3.15
	c1.08-1.028,4.5-1.135,5.344-2.311c0.862-1.202,0.208-3.46,0.777-4.808c0.565-1.34,0.58-2.801,0.808-4.276
	c0.242-1.578-0.774-2.924-0.938-4.471c-0.165-1.553,2.236-2.44,1.716-3.937c1.734-0.461,1.702-2.834,3.265-3.428
	c1.688-0.642,4.081,0.453,5.545-0.336c1.597-0.86,3.554-1.41,4.855-2.433c1.425-1.121,1.956-3.336,2.985-4.639
	c1.106-1.399,2.393-2.726,2.994-4.317c0.208,0.089,0.226-0.351,0.424-0.262c0.463,1.562-0.203,3.826,0.698,5.275
	c0.849,1.366,2.563,2.333,3.746,3.58c1.108,1.167,2.965,1.569,4.321,2.615c1.282,0.988,2.817,1.52,4.282,2.387
	c1.402,0.83,2.591,1.978,4.127,2.684c1.489,0.685,2.49,2.704,4.076,3.263c1.555,0.548,3.513-0.046,5.133,0.372
	c1.604,0.414,2.975,2.21,4.617,2.486c1.642,0.275,3.625-2.291,5.277-2.162c1.667,0.129,3.241,3.051,4.891,3.021
	c1.762-0.032,3.495-2.198,5.306-2.299c1.782-0.1,3.529-0.311,5.312-0.505c1.793-0.195,3.916,1.755,5.663,1.438
	c1.791-0.325,3.392-1.766,5.085-2.248c1.764-0.502,3.354-1.465,4.955-2.17c1.681-0.74,3.491-1.261,4.928-2.262
	c1.488-1.038,1.415-3.56,2.57-4.92c1.138-1.341,2.124-2.348,2.866-4.043c0.681-1.556,2.848-2.685,3.137-4.572
	c0.237-1.532-0.204-2.917-0.263-4.419c1.849,0.132,3.455-0.572,5.181-0.703c1.869-0.142,3.564-0.419,5.221-0.842
	c1.846-0.471,3.141-1.616,4.63-2.399c1.709-0.899,4.325-0.431,5.426-1.687c1.228-1.402,2.995-3.333,3.268-5.102
	c0.253-1.65-3.091-2.96-3.729-4.563c-0.579-1.454-0.922-2.622-2.123-3.946c-1.055-1.161-1.45-3.028-2.909-4.027
	c-1.313-0.899-2.606-2.062-4.193-2.785c-1.467-0.667-3.522,0.258-5.181-0.224c-1.56-0.453-2.679-3.081-4.375-3.341
	c-1.641-0.25-3.396,0.089-4.963,0.053c-1.663-0.039-2.724-0.135-4.276,0.043c-0.134-1.492-0.765-2.287-1.135-3.74
	c-0.367-1.438-0.071-3.205-0.645-4.603c-0.561-1.367-0.835-1.496-1.572-2.822c1.279,0.437,1.381-0.524,2.724-0.175
	c1.304,0.338,2.603,0.502,3.98,0.717c1.791,0.274,3.516-0.273,5.256-0.203c1.815,0.074,3.633,2.628,5.364,2.493
	c1.817-0.143,3.431-1.861,5.122-2.218c1.792-0.379,3.975,0.499,5.586-0.102c1.725-0.644,2.1-3.897,3.57-4.773
	c1.586-0.944,3.13-1.367,4.36-2.554c1.319-1.272,3.782-1.583,4.621-3.098c0.861-1.558,2.048-3.41,2.32-5.187
	c0.257-1.684-0.694-3.625-1.001-5.278c-0.299-1.618-1.034-3.232-1.819-4.773c-0.736-1.446-2.162-2.495-3.28-3.832
	c-1.041-1.244-2.988-1.421-4.324-2.537c-1.25-1.044-1.131-3.998-2.609-4.902C362.232,207.579,359.131,208.196,357.556,207.49z"/>
<path d="M359.077,213.583c0.118-1.737-1.33-2.943-2.054-4.638c-0.65-1.526-1.59-2.691-2.835-4.111
	c-1.099-1.252-1.764-2.97-3.264-4.09c-1.351-1.008-2.67-2.242-4.303-3.107c-1.505-0.798-2.911-2.146-4.623-2.795
	c-1.606-0.609-3.922,0.916-5.682,0.461c-1.674-0.433-2.928-3.044-4.717-3.318c-1.7-0.26-3.486-0.175-5.132-0.267
	c-1.725-0.097-3.432,1.031-5.069,1.108c-1.737,0.082-3.534-0.758-5.142-0.494c-1.729,0.285-2.826,2.704-4.365,3.186
	c-1.691,0.529-3.328,0.445-4.738,1.189c-1.583,0.836-3.419,0.75-4.577,1.829c-1.849-0.465-3.904,1.136-5.871,0.83
	c-1.717-0.262-3.063-3.494-4.729-3.598c-1.735-0.109-3.527,1.056-5.193,1.101c-1.741,0.047-3.472,0.482-5.123,0.678
	c-1.651-0.912-3.418-1.812-5.316-2.463c-1.785-0.612-3.559-1.772-5.547-2.074c-1.575-0.243-3.193-1.448-4.713-1.476
	c-1.598-0.029-3.28,1.021-4.784,1.212c-1.59,0.202-2.817,1.956-4.265,2.383c-1.544,0.455-2.704,1.306-4.042,1.991
	c-1.438,0.736-3.346,0.124-4.488,1.094c-1.235-0.477-2.268-0.88-3.574-1.252c-1.266-0.36-2.628-0.674-3.981-0.884
	c-1.764-0.27-3.561-1.39-5.27-1.412c-1.785-0.023-3.567,1.418-5.26,1.646c-1.771,0.239-3.183,1.67-4.815,2.162
	c-1.714,0.516-3.063,1.333-4.583,2.102c-1.597,0.809-3.16,1.993-4.493,3.052c-1.678,0.001-3.937-2.994-5.485-2.848
	c-1.692,0.16-3.09,2.335-4.59,2.656c-1.694,0.363-2.815,1.837-4.213,2.391c-1.653,0.655-2.672,1.363-3.826,2.26
	c-1.413,1.098-4.826,0.568-5.339,1.984c-0.089-0.01,1.58-0.883,1.491-0.902c-1.818-0.278-3.822,0.598-5.595,0.478
	c-1.84-0.125-3.685,0.021-5.455,0.059c-1.852,0.039-3.641,0.512-5.393,0.719c-1.848,0.219-3.274,2.029-4.984,2.423
	c-1.824,0.421-4.019-0.904-5.652-0.297c-1.767,0.657-3.711,0.973-5.214,1.832c-1.646,0.94-3.232,2.123-4.508,3.283
	c-1.396,1.27-2.29,3.072-3.172,4.576c-0.924,1.576-1.285,3.412-1.562,5.211c-0.267,1.743,0.414,3.342,0.793,5.063
	c0.364,1.649,1.183,2.958,2.082,4.541c0.824,1.451,0.061,4.217,1.288,5.577c1.121,1.242,3.411,1.521,4.833,2.659
	c1.316,1.053,3.257,1.22,4.802,2.162c1.449,0.883,1.779,4.03,3.406,4.797c1.543,0.728,2.946,0.79,4.63,1.398
	c0.01,1.196,1.561,2.361,1.838,3.537c-1.254-0.487-3.201-1.465-4.524-1.845c-1.284-0.368-2.33-2.225-3.703-2.435
	c-1.787-0.274-3.742,0.263-5.478,0.242c-1.808-0.022-3.693-0.117-5.414,0.117c-1.792,0.244-3.208,2.114-4.87,2.614
	c-1.733,0.522-3.915-0.162-5.466,0.615c-1.618,0.811-2.678,2.554-4.051,3.615c-1.428,1.103-3.093,1.957-4.204,3.3
	c-1.139,1.377-0.763,3.813-1.513,5.409c-0.296-0.049-1.736-0.284-2.022-0.333c-1.755-0.269-3.358-2.152-5.04-2.203
	c-1.789-0.054-3.549,1.237-5.208,1.413c-1.801,0.19-3.478,0.577-5.064,1.013c-1.775,0.489-3.94,0.041-5.366,0.807
	c-1.647,0.885-3.113,2.365-4.17,3.571c-1.191,1.359-0.767,3.511-1.029,5.209c-0.257,1.687,0.104,2.974,0.838,4.61
	c0.652,1.452,2.257,3.64,3.545,4.969c-1.896,0.344-4.608,1.421-6.257,1.969c-1.86,0.618-3.753,0.535-5.23,1.39
	c-1.725,0.999-2.032,2.978-3.129,4.264c-1.251,1.468-4.348,1.857-4.622,3.647c-0.28,1.822,0.714,3.954,1.513,5.758
	c0.697,1.574,1.934,3.086,3.316,4.574c-0.168,0.228-0.43-0.938-0.578-0.7c-1.843,0.191-3.576,0.503-5.282,0.822
	c-1.836,0.343-3.008,3.184-4.658,3.668c-1.813,0.532-3.877-0.087-5.429,0.606c-1.75,0.782-3.307,1.706-4.674,2.679
	c-1.573,1.12-3.299,2.059-4.289,3.413c-1.098,1.502-2.873,3.231-3.144,4.994c-0.317,2.048,2.77,3.806,3.648,5.842
	c0.767,1.779,2.083,3.911,3.577,5.626c-1.166,1.082-2.679,3.278-3.722,5.305c-0.754,1.463-1.753,2.632-1.84,4.938
	c-0.062,1.648-2.143,3.833-1.644,6.041c0.375,1.663,3.064,2.611,3.815,4.158c0.736,1.516,1.032,3.23,2.113,4.592
	c1.039,1.308,2.96,1.623,4.302,2.751c1.271,1.067,1.18,4.192,2.71,5.065c1.436,0.819,3.133,1.744,4.787,2.365
	c1.545,0.58,3.426,0.901,5.153,1.286c1.611,0.359,3.405,1.072,5.167,1.243c1.644,0.159,3.505-1.692,5.275-1.711
	c1.653-0.018,2.846,0.828,4.604,0.644c0.038,1.64-0.379,2.935,0.043,4.524c0.416,1.562,2.6,2.569,3.355,4.052
	c0.73,1.431,0.792,3.339,1.811,4.665c0.977,1.271,2.333,2.336,3.551,3.485c1.166,1.101,1.572,3.413,2.938,4.379
	c1.311,0.928,2.978,1.757,4.454,2.541c1.419,0.754,4-0.852,5.557-0.248c1.5,0.583,2.495,2.815,4.107,3.242
	c1.557,0.412,3.471-0.649,5.119-0.396c1.819,0.278,3.488,2.354,5.259,2.415c1.84,0.062,3.636-1.987,5.399-2.146
	c1.836-0.165,3.321-1.403,5.046-1.792c1.801-0.405,4.085,1.174,5.733,0.544c1.728-0.66,3.72-0.994,5.244-1.881
	c1.599-0.93,1.975-3.788,3.307-4.943c1.334-0.539,3.217-0.325,4.423-1.213c1.15-0.846,2.779-1.381,3.778-2.505
	c0.949-1.067,2.193-1.888,2.976-3.172c0.833-0.465,1.609-1.771,2.878-2.786c1.158-0.926,1.681-2.44,1.884-3.761
	c0.192-1.243-0.09-2.393-0.357-3.683c-0.228-1.1,1.553-2.967,0.233-3.932c0.148-2.047-2.46-4.105-2.736-6.023
	c1.348,0.504,3.259,2.91,4.665,3.349c1.373,0.427,3.558-2.097,4.993-1.756c1.396,0.331,2.312,3.02,3.774,3.247
	c1.7,0.261,3.406,0.948,5.073,1.073c1.717,0.128,3.513,0.566,5.181,0.557c1.725-0.01,3.527-0.406,5.186-0.557
	c1.723-0.156,3.122-2.574,4.756-2.875c1.705-0.313,3.107-1.232,4.698-1.694c1.67-0.485,3.968,1.05,5.491,0.41
	c1.608-0.675,3.008-1.828,4.426-2.664c1.506-0.889,2.697-2.185,3.958-3.24c1.338-1.12,2.311-2.487,3.336-3.779
	c1.074-1.354,0.853-3.212,1.542-4.735c0.697-1.54,3.038-2.467,3.297-4.161c0.239-1.562-0.889-3.125-1.054-4.673
	c-0.164-1.536-1.41-2.577-1.938-4.075c-0.506-1.438-0.656-2.789-1.468-4.172c-0.77-1.311,0.974-3.168-0.044-4.411
	c1.08-1.027,1.845-1.184,2.689-2.359c0.862-1.202-0.16-3.627,0.409-4.975c0.565-1.34,1.116-2.627,1.344-4.102
	c0.242-1.578-0.901-2.963-1.066-4.51c-0.165-1.553-0.298-3.959-0.818-5.455c1.734-0.461,4.17-1.286,5.733-1.88
	c1.688-0.642,4.27,0.795,5.734,0.007c1.597-0.86,2.482-2.888,3.783-3.911c1.425-1.121,3.878-1.396,4.908-2.698
	c1.106-1.399,1.67-3.379,2.271-4.97c0.208,0.089-1.08-0.131-0.882-0.042c0.463,1.562,1.291,3.115,2.191,4.563
	c0.849,1.366,2.906,1.84,4.089,3.086c1.108,1.167,1.628,3.006,2.984,4.052c1.282,0.988,2.504,2.237,3.97,3.104
	c1.402,0.83,3.477,0.436,5.014,1.143c1.489,0.685,2.274,3.253,3.86,3.812c1.556,0.548,3.292,0.942,4.911,1.36
	c1.605,0.414,3.282,1.1,4.923,1.375c1.642,0.275,3.688-2.815,5.339-2.687c1.667,0.129,3.221,3.544,4.871,3.515
	c1.762-0.032,3.55-1.341,5.362-1.443c1.782-0.1,3.656,0.348,5.439,0.154c1.793-0.195,3.324-2.192,5.071-2.509
	c1.791-0.325,4.185,1.83,5.877,1.348c1.764-0.502,3.62-1.34,5.221-2.045c1.681-0.74,2.921-2.623,4.359-3.625
	c1.489-1.038,3.436-1.895,4.59-3.255c1.138-1.341-0.09-4.182,0.651-5.877c0.681-1.556,3.471-2.558,3.761-4.445
	c0.237-1.532-1.548-4.08-1.608-5.583c1.849,0.132,4.418,2.266,6.145,2.134c1.869-0.142,3.812-0.685,5.468-1.108
	c1.846-0.471,3.814-1.099,5.304-1.882c1.709-0.899,3.293-2.416,4.394-3.671c1.228-1.402,2.952-3.356,3.225-5.125
	c0.253-1.65-2.345-3.246-2.982-4.849c-0.579-1.454-1.917-2.09-3.118-3.414c-1.054-1.162-0.758-3.89-2.217-4.889
	c-1.313-0.899-3.724,0.082-5.312-0.641c-1.466-0.667-2.195-3.443-3.854-3.925c-1.559-0.453-3.628,1.166-5.323,0.905
	c-1.641-0.25-3.124-0.063-4.691-0.099c-1.663-0.039-3.23-1.348-4.782-1.169c-0.134-1.492-0.981-2.798-1.351-4.252
	c-0.367-1.438,1.321-3.657,0.747-5.055c-0.561-1.367-1.698-1.384-2.435-2.709c1.279,0.437,1.116,1.558,2.458,1.906
	c1.304,0.338,2.887-0.02,4.265,0.194c1.791,0.274,3.657,0.217,5.397,0.287c1.815,0.074,3.639-0.19,5.37-0.325
	c1.817-0.143,3.244-2.17,4.936-2.527c1.792-0.378,3.331-0.694,4.942-1.295c1.725-0.644,4.741,1.438,6.211,0.562
	c1.586-0.944,2.996-2.622,4.227-3.809c1.319-1.272,2.456-3.093,3.295-4.608c0.861-1.558-0.597-3.926-0.324-5.703
	c0.257-1.684-0.308-2.897-0.613-4.551c-0.299-1.618-0.307-2.961-1.092-4.501c-0.736-1.446-0.364-3.591-1.482-4.927
	c-1.041-1.244-3.557-0.938-4.893-2.054c-1.25-1.044-1.675-3.1-3.153-4.004C361.668,215.501,360.652,214.29,359.077,213.583z"/>
<path d="M662.446,126.916c0-1.68-0.937-3.063-1.736-4.847c-0.698-1.554-1.433-2.971-2.646-4.448
	c-1.106-1.345-1.672-3.27-3.139-4.436c-1.382-1.1-2.946-2.085-4.594-2.932c-1.581-0.813-3.005-2.519-4.782-3.017
	c-1.711-0.479-3.128-1.251-4.977-1.365c-0.85-1.062-2.985,0.298-4.336-0.315c-1.226-0.556-2.315-3.023-3.825-3.023
	c-2.01,0-4.635,0.729-6.098,1.647c-1.652,1.037-1.995,3.879-2.504,5.609c-1.79,0.693-3.463,1.479-4.9,2.418
	c-1.618,1.058-2.708,2.764-3.812,4.068c-0.989-0.109-2.25-1.045-3.268-1.045c-1.636,0-3.204,0.633-4.737,1.067
	c-1.549,0.438-3.548,0.118-4.951,0.905c-1.405,0.788-2.963,1.747-4.181,2.788c-1.238,1.058-1.031,3.572-2.033,4.793
	c-1.055,1.286-1.654,2.64-2.397,3.991c-0.828,1.507-3.784,1.995-4.159,3.43c-0.147,0,1.125-1.314,0.986-1.314
	c-1.785,0-3.396,2.759-5.088,3.032c-1.759,0.284-3.042,1.503-4.667,2.055c-1.685,0.572-3.801-0.272-5.306,0.556
	c-1.557,0.857-3.638,1.061-4.962,2.158c-1.365,1.132-1.557,3.452-2.63,4.801c-1.1,1.381-1.457,2.996-2.203,4.563
	c-0.75,1.577-1.808,3.371-2.151,5.094c-1.758,0.059-3.998-0.493-5.639-0.295c-1.768,0.214-3.746-0.744-5.334-0.385
	c-1.775,0.401-3.141,2.16-4.63,2.719c-1.766,0.663-3.243,1.543-4.509,2.389c-1.662,1.11-3.653,1.232-4.242,2.573
	c-1.803,0.377-2.975,1.563-4.518,2.34c-1.646,0.829-4.134,1.035-5.375,2.235c-1.317,1.272-1.202,3.984-1.934,5.573
	c-0.74,1.61,0.165,3.39,0.165,5.216c0,1.769-0.543,3.326,0.149,4.898c0.686,1.555,0.224,4.249,1.466,5.513
	c1.176,1.197,3.529,1.459,5.099,2.308c1.475,0.798,3.186,1.494,4.92,1.913c1.63,0.394,3.454,0.86,5.24,0.86
	c2.264,0,4.173-0.24,6.17-0.863c0.771,1.374,0.601,1.262,1.608,2.379c-1.628,0.414-1.942,1.292-3.376,1.924
	c-1.545,0.682-3.419,0.914-4.689,1.817c-1.38,0.981-2.45,1.8-3.444,3.001c-2.272,0.067-3.682,2.349-5.414,2.835
	c-2.624,0.736-4.043,1.501-4.603,2.841c-1.632,1.342-2.907,2.771-3.833,4.566c-0.937,1.816-0.452,3.442-0.452,5.56
	c0,1.743-1.641,3.514-0.994,5.061c0.648,1.55,2.482,2.271,3.662,3.53c1.133,1.208,1.834,2.874,3.354,3.729
	c1.438,0.811,2.081,0.935,3.775,1.356c-2.186,0.51-3.696,0.678-5.199,1.495c-2.256,1.227-2.731,3.767-2.731,5.422
	c0,0.9-0.49,2.202,0.222,3.002c-0.118,0,0.414-0.347,0.296-0.347c-1.675,0-2.971,0.877-4.428,1.481
	c-1.51,0.626-3.375,0.613-4.513,1.751c-1.139,1.139-2.004,2.638-2.631,4.148c-0.604,1.457-2.322,3.118-2.322,4.792
	s1.867,3.273,2.472,4.73c0.627,1.51,2.233,2.182,3.372,3.32c1.138,1.138,1.188,4.244,2.697,4.871
	c1.457,0.604,3.678-0.963,5.353-0.963c1.746,0,3.662,0.625,5.153-0.037c1.546-0.687,3.727-1.302,4.859-2.537
	c1.123-1.225,1.419-3.486,1.996-5.088l-0.481,1.622c1.969,0,3.8-2.387,5.585-2.654c1.998-0.298,4.26,0.663,5.912,0.085
	c2.007-0.702,3.326-2.617,4.626-3.634c1.757-1.375,1.44-2.928,1.44-4.657c0-0.376,1.522-0.065,1.443-0.421
	c1.554-0.272,2.389-2.129,3.721-2.771c1.42-0.684,3.797-0.043,4.868-1.065c1.132-1.08,1.185-3.167,1.813-4.529
	c0.636-1.376,2.152-2.827,2.152-4.391c0-1.52-0.043-3.601-0.659-4.937c-0.609-1.323-3.858-2.279-4.931-3.346
	c1.57-0.258,3.944-0.646,5.37-1.107c1.52-0.492,3.441-0.005,4.763-0.699c1.419-0.746,2.348-2.452,3.496-3.396
	c1.318,0.917,2.646,2.165,4.201,2.813c1.48,0.618,3.055,1.448,4.71,1.772c1.571,0.308,3.337-0.185,5.03-0.185
	c1.74,0,3.399-0.322,5.021-0.639c1.707-0.334,2.907-1.756,4.428-2.398c1.604-0.678,3.191-0.916,4.525-1.885
	c1.409-1.024,3.316-1.454,4.349-2.744c1.079-1.347,0.831-3.364,1.415-4.934c0.586-1.576,0.698-2.951,0.698-4.68
	c0-1.186,0.696-2.426,0.43-3.543c1.513-0.809,3.163-1.566,4.404-2.683c1.27-1.143,2.953-2.112,3.868-3.521
	c0.921-1.417-0.324-3.788,0.166-5.417c0.479-1.59,2.985-2.881,2.985-4.618c0-1.813-0.581-3.773-1.103-5.426
	c-0.534-1.691-2.349-2.825-3.349-4.282c-0.99-1.443-1.45-3.455-2.817-4.603c-1.333-1.119-4.717-1.488-6.333-2.264
	c1.374-1.81,3.36-4.563,4.122-6.659c1.492,0.217,3.566,1.339,5.207,1.339c1.673,0,3.023-2.178,4.541-2.41
	c1.692-0.259,3.98,2.325,5.389,1.823c1.682-0.6,2.765-2.502,3.892-3.371c1.477-1.138,2.206-2.71,2.409-4.145
	c1.764-0.328,3.542-0.673,5.135-1.139c1.745-0.511,3.648-0.46,5.144-1.118c1.7-0.747,3.934-0.76,5.248-1.667
	c1.568-1.083,2.474-3.23,3.393-4.496c1.093-1.505,0.356-3.552,0.356-5.237c0-1.77-1.135-3.485-2.331-5.057
	c1.294-0.847,3.904-1.385,4.873-2.39c1.075-1.115,2.002-2.466,2.6-3.736C662.93,130.029,662.446,128.396,662.446,126.916z"/>
<path d="M662.088,133.916c0-1.68-0.799-2.964-1.599-4.748c-0.698-1.554-1.793-2.592-3.007-4.069
	c-1.106-1.345-0.413-4.599-1.88-5.765c-1.382-1.1-3.371-1.725-5.019-2.572c-1.581-0.813-3.397-1.53-5.175-2.028
	c-1.711-0.479-2.999-1.723-4.848-1.836c-0.85-1.062-2.062-1.738-3.413-2.352c-1.226-0.556-3.228,0.661-4.737,0.661
	c-2.01,0-3.378,1.058-4.841,1.977c-1.652,1.037-2.176,2.898-2.685,4.628c-1.79,0.693-3.575,1.933-5.013,2.872
	c-1.618,1.058-4.748-0.597-5.853,0.707c-0.989-0.109-1.174,0.125-2.191,0.125c-1.636,0-2.957,2.224-4.489,2.657
	c-1.55,0.438-2.821,0.983-4.225,1.77c-1.405,0.787-2.232,2.003-3.45,3.044c-1.238,1.058-4.533,0.104-5.535,1.324
	c-1.055,1.286-1.747,3.075-2.49,4.426c-0.828,1.507-1.083,3.33-1.458,4.764c-0.147,0,0.313,1.178,0.175,1.178
	c-1.785,0-3.666-1.697-5.357-1.425c-1.759,0.284-3.017,2.453-4.641,3.004c-1.686,0.572-2.805,1.813-4.31,2.642
	c-1.557,0.857-2.971,1.407-4.295,2.505c-1.365,1.132-4.187,0.776-5.26,2.125c-1.1,1.381-2.45,2.911-3.196,4.478
	c-0.75,1.577-1.267,2.459-1.61,4.182c-1.758,0.059-2.338,1.452-3.979,1.65c-1.768,0.214-3.78-0.888-5.368-0.529
	c-1.775,0.401-3.018,2.551-4.507,3.109c-1.766,0.663-3.199,1.508-4.465,2.353c-1.662,1.11-4.021,0.707-4.61,2.047
	c-1.803,0.377-2.568,2.229-4.111,3.006c-1.646,0.829-4.058,0.952-5.299,2.152c-1.317,1.273-2.496,3.248-3.228,4.836
	c-0.74,1.61-1.697,3.873-1.697,5.699c0,1.769,0.565,4.121,1.258,5.693c0.686,1.555,2.898,2.598,4.141,3.861
	c1.176,1.197,2.244,3.081,3.813,3.93c1.475,0.798,3.485,1.196,5.22,1.616c1.63,0.394,3.567,1.272,5.354,1.272
	c2.264,0,4.027-0.583,6.024-1.206c0.771,1.374,1.309,0.954,2.316,2.071c-1.628,0.414-2.646,0.744-4.079,1.376
	c-1.545,0.682-2.191,2.763-3.462,3.667c-1.38,0.981-3.771-0.332-4.766,0.869c-2.272,0.067-3.618,2.344-5.351,2.83
	c-2.624,0.736-5.242,0.99-5.802,2.33c-1.632,1.342-3.355,2.954-4.281,4.749c-0.937,1.816,0.656,4.379,0.656,6.497
	c0,1.743-1.969,3.948-1.322,5.495c0.648,1.55,3.207,2.13,4.388,3.39c1.133,1.208,1.496,3.734,3.015,4.589
	c1.438,0.811,3.915,0.405,5.609,0.826c-2.186,0.51-3.479,2.626-4.982,3.443c-2.256,1.227-4.36,1.194-4.36,2.849
	c0,0.9-0.957,2.717-0.244,3.518c-0.119,0,1.109-1.773,0.991-1.773c-1.675,0-3.888-0.421-5.345,0.184
	c-1.51,0.626-1.487,3.792-2.625,4.93c-1.139,1.139-4.328,1.106-4.955,2.616c-0.604,1.457,1.436,3.68,1.436,5.354
	s0.285,2.933,0.89,4.39c0.627,1.51,0.107,3.826,1.246,4.964c1.138,1.138,2.757,2.301,4.267,2.927
	c1.457,0.604,3.412-0.027,5.087-0.027c1.746,0,3.856,0.771,5.349,0.109c1.546-0.687,3.632-1.652,4.765-2.887
	c1.123-1.225-0.059-4.075,0.519-5.676l0.896-1.016c1.969,0,3.878,1.267,5.663,1c1.998-0.298,3.866-0.76,5.519-1.338
	c2.007-0.702,4.48-0.642,5.78-1.659c1.757-1.375,2.619-4,2.619-5.729c0-0.376-1.435-2.272-1.514-2.628
	c1.554-0.272,3.671,0.788,5.003,0.146c1.42-0.684,1.89-2.394,2.961-3.416c1.132-1.08,3.413-1.221,4.04-2.583
	c0.637-1.376,0.398-3.133,0.398-4.697c0-1.52,0.456-3.328-0.16-4.665c-0.609-1.323-1.53-1.899-2.603-2.967
	c1.57-0.258,1.939-2.129,3.365-2.591c1.52-0.492,3.299,0.044,4.62-0.65c1.419-0.746,2.744-3.075,3.893-4.02
	c1.318,0.917,2.984,2.798,4.539,3.446c1.48,0.618,3.145,0.116,4.8,0.44c1.571,0.308,2.925,0.336,4.618,0.336
	c1.74,0,3.743,3.018,5.364,2.701c1.707-0.334,3.438-1.439,4.959-2.082c1.604-0.678,3.404-1.491,4.738-2.46
	c1.408-1.024,1.614-3.442,2.646-4.733c1.078-1.347,1.317-2.92,1.901-4.49c0.586-1.576,0.976-2.903,0.976-4.633
	c0-1.186,0.8-2.261,0.533-3.378c1.513-0.809,2.865-1.781,4.106-2.898c1.27-1.143,3.286-1.875,4.201-3.284
	c0.921-1.417,2.316-3.094,2.807-4.723c0.479-1.59-1.659-3.763-1.659-5.499c0-1.813,1.863-4.003,1.342-5.656
	c-0.534-1.691-1.469-3.699-2.469-5.156c-0.99-1.443-3.482-1.846-4.85-2.994c-1.333-1.119-2.788-2.134-4.404-2.91
	c1.374-1.81,1.999-4.25,2.761-6.346c1.492,0.217,3.423,1.134,5.063,1.134c1.673,0,3.272-0.521,4.79-0.753
	c1.692-0.259,3.615,0.376,5.023-0.126c1.682-0.6,3.472-1.411,4.599-2.28c1.477-1.138,1.197-3.944,1.4-5.379
	c1.764-0.328,3.683-1.152,5.275-1.619c1.745-0.511,4.278,1.289,5.774,0.632c1.699-0.747,3.635-1.484,4.949-2.391
	c1.569-1.083,1.146-4.234,2.066-5.499c1.092-1.505,0.652-2.628,0.652-4.313c0-1.77,0.861-3.444-0.335-5.015
	c1.294-0.847,3.187-1.134,4.156-2.139c1.075-1.115,0.748-3.206,1.346-4.477C661.979,136.582,662.088,135.396,662.088,133.916z"/>
</svg>
