<?xml version="1.0" encoding="utf-8"?>
<!-- Generator: Adobe Illustrator 16.0.0, SVG Export Plug-In . SVG Version: 6.00 Build 0)  -->
<!DOCTYPE svg PUBLIC "-//W3C//DTD SVG 1.1//EN" "http://www.w3.org/Graphics/SVG/1.1/DTD/svg11.dtd">
<svg version="1.1" id="cloudbottom" xmlns="http://www.w3.org/2000/svg" xmlns:xlink="http://www.w3.org/1999/xlink" x="0px"
	 y="0px" width="720px" height="144px" viewBox="0 0 720 144" enable-background="new 0 0 720 144" xml:space="preserve">
<path d="M12.434,58.97c0.401,12.062,10.743,21.724,23.449,21.724c10.782,0,19.859-6.957,22.61-16.433
	c4.299-0.32,8.323-1.396,11.876-3.062c2.538,10.051,10.8,17.885,21.197,19.969c4.644,8.143,14.969,13.812,26.97,13.812
	c16.343,0,29.592-10.508,29.592-23.471c0-0.137-0.01-0.271-0.013-0.407c5.812-0.94,10.906-3.463,14.555-6.98
	c5.899,3.979,13.451,6.368,21.683,6.368c0.476,0,0.944-0.015,1.414-0.029c3.403,12.31,16.094,21.458,31.239,21.458
	c14.662,0,27.021-8.574,30.884-20.29c6.921,3.81,15.032,6.002,23.708,6.002c17.305,0,32.368-8.725,40.194-21.608
	c6.846,3.365,14.706,5.281,23.071,5.281c7.532,0,14.658-1.557,21.002-4.322c5.34,3.33,12.254,5.344,19.812,5.344
	c13.848,0,25.541-6.743,29.321-15.995c3.076,0.445,6.23,0.689,9.453,0.689c3.716,0,7.344-0.315,10.856-0.904
	c0.479,1.289,1.011,2.558,1.605,3.797c-2.705,3.077-4.299,6.829-4.299,10.884c0,10.427,10.506,18.877,23.469,18.877
	c4.703,0,9.08-1.116,12.752-3.034c6.039,1.959,12.57,3.034,19.391,3.034c18.5,0,34.882-7.88,44.99-19.992
	c1.24,0.621,2.517,1.197,3.81,1.752c-0.214,1.121-0.33,2.271-0.33,3.442c0,11.553,10.735,20.918,23.979,20.918
	c11.268,0,20.713-6.779,23.284-15.916c3.974,2.916,9.223,4.691,14.98,4.691c6.627,0,12.582-2.352,16.69-6.087
	c5.271,11.91,18.648,20.373,34.33,20.373c12.789,0,24.047-5.631,30.625-14.166c2.775,0.584,5.675,0.902,8.66,0.902
	c20.007,0,36.225-13.934,36.225-31.123c0-0.908-0.055-1.804-0.145-2.689c1.668-1.758,3.22-3.588,4.675-5.475V0H0v61.275
	C4.366,61.135,8.546,60.333,12.434,58.97z"/>
</svg>
