<svg version="1.1" id="clouds" class="clouds" xmlns="http://www.w3.org/2000/svg" xmlns:xlink="http://www.w3.org/1999/xlink" x="0px" y="0px"
	 width="1229.5px" height="650px" viewBox="-529.5 0 1229.5 650" xml:space="preserve"
	>
<path d="M-39.848,0c171.714,79.218,569.255,252.31,578.637,253.993c5.546,2.073,11.578,3.561,15.461-2.083
	c2.441-3.549,1.392-3.922,5.296-4.521c2.849-0.437,5.596-1.59,8.14-2.908c8.166-4.23,21.828-15.781,12.24-25.313
	c4.464-0.732,8.384-1.504,12.019-4.374c4.364,2.105,8.416,3.636,13.335,3.636c8.912,0,18.793-6.142,18.793-15.891
	c0-4.45,6.594-12.056,9.225-15.453c6.204-8.011-5.858-12.222-11.689-16.167c5.376-7.035,12.41-7.191,19.643-10.816
	c6.073-3.044,12.79-4.048,18.724-7.006c2.563-1.278,4.089-3.501,3.936-6.425c0.057-2.595-0.796-5.058-2.357-7.121
	c1.449-0.948,3.015-1.751,4.403-2.79c6.668-4.991,0.049-14.033-4.17-17.931C646.681,103.628,566.71,29.333,530.195,0H-39.848z"/>
<path d="M671.566,132.811c0-7.659-8.186-12.949-13.272-16.819c-3.698-2.814-16.042-6.543-19.956-4.089
	c-0.515,0.78-1.03,1.56-1.545,2.34c-0.068,3.065-1.822,4.746-5.264,5.042c-5.178,3.385-4.453,1.947-10.867,3.761
	c-3.614,1.021-8.24,0.847-9.414,5.543c-0.995,3.979-6.115,6.148-6.882,9.085c0.3-0.405,0.602-0.808,0.906-1.208
	c-3.792,0-7.026,5.018-11.473,4.845c-5.541-0.215-6.595,3.27-9.359,6.744c-5.093,6.394-1.092,7.635-9.189,8.609
	c-6.495,0.786-9.271,2.698-15.63,5.447c-10.009,4.327-11.832,7.166-12.476,17.712c-0.899,14.739,17.628,7.542,22.841,13.32
	c-6.688,1.701-17.385,8.18-21.802,13.363c-6.084,7.138-1.501,17.813,7.074,19.945c-2.956,0.689-11.001,4.728-7.088,9.122
	c-6.737,0-17.489,9.957-8.857,16.879c5.144,4.125,2.236,4.992,9.129,4.992c6.243,0,8.87-1.018,11.044-7.046
	c-0.094,1.463-2.157,3.316,2.188,0.363c3.049-2.072,4.883-0.164,7.941-1.234c2.318-0.811,7.188-6.733,6.905-8.012
	c4.294-0.751,7.923-4.132,9.566-7.692c3.129-6.781,1.546-6.97-3.162-11.655c2.539-0.417,7.059-0.475,9.318-1.661
	c1.178-0.932,2.249-1.973,3.215-3.123c2.406,2.037,5.138,3.442,8.194,4.216c8.774,1.719,19.903-4.034,22.777-11.757
	c2.564-6.898,0.838-6.584,6.988-11.557c3.225-2.608,0.614-5.825,3.347-8.765c6.148-6.616-7.162-15.43-11.302-17.417
	c1.526-1.879,2.79-3.92,3.791-6.124c2.673,0.389,4.38,2.189,6.93,0.204c4.225-3.291,8.229,2.666,12.116-4.416
	c3.267-5.948,27.465-4.482,16.251-19.218C669.037,139.619,671.566,138.763,671.566,132.811z"/>
<path d="M-529.5,345.649c94.486,18.079,613.247,41.824,645.101,43.032c11.942,0.431,25.73,4.383,37.429,1.436
	c8.815-2.221,17.8-6.201,25.152-11.565c8.498-6.2,7.3-10.969,5.575-20.479c15.58,2.286,63.557,2.197,57.092-25.328
	c-0.715-3.044-2.176-5.877-3.92-8.45c-3.306-4.876-0.817-3.914,2.199-8.373c4.315-6.379,3.813-10.554,7.106-16.619
	c17.267-31.802,32.056,5.32,42.316,7.567c13.791,3.84,31.277,3.978,43.469-4.538c5.138-3.589,6.47-8.975,10.602-13.146
	c3.928-3.965,9.454-6.028,14.267-8.66c11.374-6.22,4.024-10.157-5.324-17.307c-4.65-3.557-8.245-4.353-13.854-5.969
	c-5.788-1.54-5.924-11.74-8.083-15.625c23.66,8.083,60.7-17.006,29.74-34.234c-5.896-3.281-4.407-11.566-10.465-16.68
	c-5.127-4.329-12.376-6.927-18.596-9.304c-12.216-5.923-25.126-11.269-37.808-16.107c-51.004-24.344-104.761-46.597-157.487-66.947
	C125.574,93.971,26.539,51.98-96.523,0H-529.5V345.649z"/>
<path d="M360.556,208.49c0.732-10.767-7.72-18.705-18.052-20.532c-5.725-1.012-12.381-2.032-18.135-1.763
	c-4.028,0.19-14.098,1.419-17.25,3.964c-1.083,1.854-2.507,2.086-4.271,0.699c-4.234-1.49-4.527,2.265-8.067,2.042
	c-2.159-0.135-2.847-3.515-5.035-3.456c-4.024,0.112-3.522,2.584-7.438,0.069c-3.425-2.199-5.127-0.495-8.733-1.042
	c-5.244-0.81-2.284-3.49-9.384-2.588c-6.532,0.831-8.17,4.667-12.301,8.18c-4.089-1.579-8.218-5.145-13.211-5.209
	c-6.691-0.086-11.949,2.492-17.993,4.759c-4.435,1.664-8.507,6.491-13.669,4.705c-3.31-1.145-9.698,7.417-9.847,7.383
	c-13.592-2.081-35.613-4.866-40.872,12.97c-1.083,3.673,2.808,18,5.608,20.009s5.885,5.125,9.596,4.877
	c7.719-0.515,7.061,2.454,8.319,7.794c-5.658-2.196-15.345-5.129-21.506-1.793c-3.367,1.823-7.422-0.212-9.75,3.278
	c-0.886,1.907-2.389,2.923-4.51,3.049c-4.736,0.917-1.968,3.917-3.43,7.028c-8.584-1.417-12.021-2.06-19.81,1.1
	c-2.887,1.171-8.52,1.253-8.133,5.39c0.537,5.744-0.696,7.712,3.709,12.261c-7.297,1.323-11.326,4.717-16.717,9.367
	c-5.5,4.744,4.8,11.265,2.867,14.351c-6.424,0.667-15.108-0.297-21.336,4.14c-10.054,7.159-5.697,13.691,0.577,20.897
	c-3.948,3.663-8.997,6.589-7.358,12.935c0.863,3.344,4.184,13.5,7.183,14.347c4.351,1.229,6.824,5.651,10.926,7.192
	c6.625,2.487,12.635,2.739,20.125,1.953c0.453,19.512,26.887,29.043,44.104,26.718c4.097-0.554,9.448-1.373,13.068-3.481
	c3.284-1.909,1.256-5.471,6.014-4.744c3.629,0.556,3.268-1.914,5.146-4.029c1.986-2.232,9.514-9.891,8.606-10.852
	c-1.832-1.938-0.57-7.345-1.005-10.365c5.601,2.094,12.515,6.008,18.997,2.621c4.072-2.128,8.304-0.318,12.512-1.095
	c1.799,0.32,3.607,0.577,5.425,0.769c1.465-1.078,2.862-2.237,4.191-3.479c3.618-1.518,13.423-6.044,14.218-10.038
	c0.998-5.014,2.665-9.335,2.994-14.52c0.419-6.591-4.255-6.408-7.29-10.112c1.827-0.665,3.608-1.436,5.344-2.311
	c1.026-1.43,1.376-7.734,1.585-9.084c0.749-4.881-0.097-5.457,2.475-10.072c1.841-3.303,8.642-1.917,11.968-4.533
	c0.876-0.689,5.687-9.54,6.403-9.218c2.753,9.291,7.162,9.552,15.06,15.246c3.81,2.747,14.148,9.273,18.575,6.39
	c4.631-3.016,5.471,3.741,10.168,0.762c5.194-3.295,8.98,0.604,13.646-0.242c8.885-1.613,14.198-7.036,19.119-13.489
	c3.054-4.003,4.361-6.021,4.158-11.146c3.137,0.224,7.37-0.771,10.402-1.545c1.82-0.465,8.969-2.846,10.056-4.086
	c4.922-5.618,1.587-4.526-0.461-9.665c-3.227-8.101-7.115-8.863-14.405-10.982c-5.183-1.505-6.962-4.009-13.614-3.245
	c-0.324-3.616-1.585-7.986-3.353-11.165c1.111,0.38,6.202,0.464,6.704,0.542c2.513,0.384,8.598,2.448,10.62,2.29
	c7.464-0.587,13.441-4.633,18.639-9.647c6.349-6.125,8.822-9.107,4.12-18.336c-1.75-3.441-4.93-4.135-7.604-6.369
	c-0.752-1.697-1.621-3.331-2.609-4.902C364.621,209.033,362.595,208.719,360.556,208.49
	C360.674,206.753,362.131,209.196,360.556,208.49z"/>
</svg>
