<svg version="1.1" class="dust" xmlns="http://www.w3.org/2000/svg" xmlns:xlink="http://www.w3.org/1999/xlink" x="0px" y="0px"
	 width="33.441px" height="31.125px" viewBox="0 0 33.441 31.125" enable-background="new 0 0 33.441 31.125" xml:space="preserve">
<path class="dustbody" d="M28.081,15.18c0,0.316-1.784,0.208-1.936,0.497c-0.148,0.289,1.303,1.209,1.222,1.501
	c-0.082,0.295-1.805,0.354-1.815,0.674c-0.013,0.328,1.63,1.062,1.494,1.342c-0.135,0.281-1.749-0.527-1.989-0.31
	c-0.243,0.222,0.855,1.523,0.705,1.786c-0.152,0.264-1.832-0.042-1.903,0.277c-0.069,0.32,1.433,1.322,1.259,1.576
	c-0.177,0.256-1.631-0.799-1.905-0.627c-0.273,0.172,0.537,1.688,0.325,1.905c-0.213,0.22-1.741-0.571-1.913-0.299
	c-0.177,0.278,0.815,1.769,0.546,1.923c-0.271,0.156-1.062-1.445-1.395-1.434c-0.32,0.012-0.402,1.73-0.699,1.806
	c-0.293,0.074-1.198-1.386-1.485-1.233c-0.285,0.15-0.1,1.938-0.411,1.963c-0.306,0.021-0.422-1.779-0.735-1.879
	c-0.31-0.099-0.884,1.513-1.19,1.513c-0.308,0-0.882-1.61-1.191-1.513c-0.313,0.1-0.432,1.901-0.735,1.879
	c-0.312-0.023-0.125-1.812-0.41-1.961c-0.287-0.152-1.192,1.308-1.485,1.232c-0.298-0.074-0.381-1.795-0.701-1.807
	c-0.33-0.014-1.123,1.59-1.394,1.434s0.721-1.645,0.544-1.923c-0.172-0.272-1.699,0.519-1.913,0.299
	c-0.212-0.218,0.6-1.733,0.325-1.905s-1.73,0.883-1.905,0.625c-0.175-0.254,1.328-1.254,1.258-1.574
	c-0.07-0.319-1.749-0.012-1.901-0.276c-0.152-0.263,0.947-1.565,0.704-1.787c-0.241-0.219-1.856,0.587-1.991,0.308
	c-0.135-0.277,1.507-1.012,1.496-1.34c-0.013-0.319-1.731-0.379-1.813-0.674c-0.082-0.292,1.369-1.214,1.22-1.502
	c-0.15-0.29-1.936-0.18-1.936-0.496s1.784-0.207,1.936-0.496c0.149-0.288-1.302-1.211-1.22-1.503
	c0.082-0.294,1.802-0.353,1.813-0.674c0.013-0.327-1.63-1.061-1.495-1.339c0.134-0.279,1.75,0.527,1.991,0.308
	c0.243-0.221-0.856-1.525-0.704-1.787c0.152-0.264,1.832,0.043,1.901-0.276c0.069-0.32-1.434-1.321-1.258-1.575
	c0.175-0.256,1.63,0.799,1.905,0.626c0.273-0.172-0.537-1.688-0.325-1.906C9.181,6.34,10.71,7.13,10.882,6.857
	c0.177-0.278-0.815-1.766-0.545-1.923c0.271-0.156,1.062,1.446,1.394,1.434c0.32-0.012,0.402-1.732,0.7-1.807
	c0.293-0.074,1.197,1.386,1.485,1.234c0.286-0.151,0.101-1.938,0.412-1.962c0.305-0.023,0.421,1.78,0.734,1.879
	C15.369,5.81,15.944,4.2,16.251,4.2c0.308,0,0.882,1.61,1.191,1.512c0.313-0.099,0.432-1.902,0.736-1.879
	c0.312,0.024,0.123,1.811,0.409,1.962c0.287,0.152,1.192-1.308,1.485-1.235c0.297,0.075,0.38,1.795,0.7,1.807
	c0.33,0.012,1.123-1.59,1.394-1.434c0.271,0.157-0.722,1.644-0.546,1.922c0.172,0.273,1.702-0.516,1.914-0.297
	c0.212,0.218-0.6,1.734-0.325,1.906c0.274,0.173,1.729-0.882,1.905-0.626c0.174,0.254-1.329,1.255-1.259,1.575
	c0.069,0.319,1.75,0.013,1.901,0.276s-0.948,1.565-0.706,1.786c0.241,0.22,1.857-0.587,1.992-0.308
	c0.136,0.278-1.507,1.014-1.495,1.34c0.013,0.321,1.733,0.381,1.815,0.675c0.079,0.292-1.371,1.213-1.222,1.501
	C26.297,14.974,28.081,14.864,28.081,15.18z"/>
<g>
	<circle class="white" cx="12.703" cy="13.156" r="2.406"/>
	<circle class="dark" cx="12.703" cy="13.156" r="0.906"/>
	<circle class="white" cx="19.703" cy="13.156" r="2.406"/>
	<circle class="dark" cx="19.703" cy="13.156" r="0.906"/>
</g>
</svg>
