<?xml version="1.0" encoding="utf-8"?>
<!-- Generator: Adobe Illustrator 16.0.0, SVG Export Plug-In . SVG Version: 6.00 Build 0)  -->
<!DOCTYPE svg PUBLIC "-//W3C//DTD SVG 1.1//EN" "http://www.w3.org/Graphics/SVG/1.1/DTD/svg11.dtd">
<svg version="1.1" id="Layer_1" xmlns="http://www.w3.org/2000/svg" xmlns:xlink="http://www.w3.org/1999/xlink" x="0px" y="0px"
	 width="52px" height="52px" viewBox="0 0 52 52" enable-background="new 0 0 52 52" xml:space="preserve">
<g>
	<linearGradient id="SVGID_1_" gradientUnits="userSpaceOnUse" x1="1.0503" y1="26.8418" x2="49.9512" y2="26.8418">
		<stop  offset="0" style="stop-color:#1F2E4E"/>
		<stop  offset="1" style="stop-color:#142843"/>
	</linearGradient>
	<path opacity="0.7" fill="url(#SVGID_1_)" d="M31.424,12.681c-0.013-0.025-0.025-0.047-0.037-0.073
		c-0.227-0.502-0.553-0.969-0.865-1.469c-0.629-0.988-1.424-1.933-2.247-2.823c-1.677-1.758-3.596-3.163-5.085-4.109
		c-1.495-0.943-2.581-1.438-2.581-1.438c-0.272-0.124-0.606-0.033-0.772,0.227c-0.181,0.285-0.051,0.607,0.189,0.848
		c2.182,2.174,4.489,5.155,6.694,9.25c-1.564,0.339-3.05,0.877-4.445,1.573c-0.69-0.776-1.477-1.568-2.368-2.335
		c-1.154-0.988-2.457-1.919-3.797-2.757c-2.69-1.656-5.538-2.907-7.708-3.71C6.227,5.066,4.718,4.686,4.718,4.686
		c-0.295-0.07-0.61,0.083-0.722,0.374c-0.124,0.317,0.064,0.61,0.35,0.794c7.116,4.597,10.758,8.156,13.778,11.607
		c-1.294,1.144-2.436,2.452-3.383,3.905c-0.206-0.143-0.401-0.278-0.614-0.426c-0.505-0.321-0.992-0.736-1.541-0.989
		c-0.538-0.276-1.086-0.558-1.633-0.839c-1.059-0.61-2.25-0.947-3.291-1.381c-0.528-0.202-1.072-0.319-1.566-0.47
		c-0.499-0.135-0.96-0.29-1.409-0.364c-1.752-0.396-2.988-0.466-2.988-0.466c-0.289-0.018-0.56,0.174-0.631,0.468
		c-0.079,0.33,0.121,0.66,0.451,0.741l0.017,0.005c0.001,0,6.036,3.583,11.188,7.839c-0.694,1.983-1.091,4.106-1.091,6.326
		c0,10.583,8.577,19.161,19.16,19.161c10.58,0,19.158-8.578,19.158-19.161C49.951,21.44,41.709,13.017,31.424,12.681z"/>
	<linearGradient id="SVGID_2_" gradientUnits="userSpaceOnUse" x1="22.4189" y1="15.4321" x2="41.6436" y2="48.5868">
		<stop  offset="0" style="stop-color:#1F2E4E"/>
		<stop  offset="1" style="stop-color:#142843"/>
	</linearGradient>
	<circle fill="url(#SVGID_2_)" cx="29.385" cy="27.446" r="19.159"/>
	<g>
		
			<linearGradient id="SVGID_3_" gradientUnits="userSpaceOnUse" x1="15.4414" y1="8.0967" x2="31.4824" y2="8.0967" gradientTransform="matrix(0.9765 0.2157 -0.2157 0.9765 3.6279 -6.1044)">
			<stop  offset="0" style="stop-color:#6084AA"/>
			<stop  offset="1" style="stop-color:#386691"/>
		</linearGradient>
		<path fill="url(#SVGID_3_)" d="M18.619-0.52c-0.24-0.24-0.37-0.562-0.189-0.848c0.166-0.26,0.5-0.351,0.772-0.227
			c0,0,1.086,0.494,2.581,1.438c1.489,0.946,3.408,2.352,5.085,4.109c0.823,0.891,1.618,1.835,2.247,2.823
			c0.312,0.5,0.639,0.967,0.865,1.469c0.232,0.503,0.502,0.918,0.661,1.428c0.172,0.491,0.33,0.941,0.473,1.339
			c0.085,0.341,0.159,0.643,0.22,0.891c0.117,0.486,0.184,0.763,0.184,0.763c0.256,1.068-0.399,2.145-1.471,2.401
			c-1.066,0.259-1.969-0.455-2.4-1.467C24.789,6.87,21.587,2.437,18.619-0.52z"/>
	</g>
	<g>
		
			<linearGradient id="SVGID_4_" gradientUnits="userSpaceOnUse" x1="2.001" y1="9.4287" x2="23.9766" y2="9.4287" gradientTransform="matrix(0.9993 0.0374 -0.0374 0.9993 0.6131 -0.8209)">
			<stop  offset="0" style="stop-color:#6084AA"/>
			<stop  offset="1" style="stop-color:#386691"/>
		</linearGradient>
		<path fill="url(#SVGID_4_)" d="M2.94,1.491C2.655,1.307,2.466,1.014,2.59,0.697c0.112-0.291,0.427-0.444,0.722-0.374
			c0,0,1.509,0.381,3.683,1.178c2.17,0.803,5.018,2.054,7.708,3.71c1.34,0.838,2.643,1.769,3.797,2.757
			c1.157,0.995,2.141,2.034,2.96,3.023c0.396,0.547,0.756,1.046,1.077,1.492c0.318,0.45,0.455,0.765,0.639,1.064
			c0.329,0.577,0.516,0.904,0.516,0.904c0.623,1.085,0.244,2.467-0.84,3.087c-1.086,0.62-2.287,0.115-3.09-0.842
			C15.814,11.997,12.529,7.685,2.94,1.491z"/>
	</g>
	<g>
		
			<linearGradient id="SVGID_5_" gradientUnits="userSpaceOnUse" x1="2.001" y1="16.6465" x2="18.4531" y2="16.6465" gradientTransform="matrix(0.9808 -0.1949 0.1949 0.9808 -4.1806 3.7559)">
			<stop  offset="0" style="stop-color:#6084AA"/>
			<stop  offset="1" style="stop-color:#386691"/>
		</linearGradient>
		<path fill="url(#SVGID_5_)" d="M14.1,23.582C8.665,18.343,0.131,13.281,0.129,13.281l-0.017-0.005
			c-0.33-0.081-0.53-0.411-0.451-0.741c0.071-0.294,0.342-0.486,0.631-0.468c0,0,1.236,0.071,2.988,0.466
			c0.449,0.074,0.91,0.229,1.409,0.364c0.494,0.151,1.038,0.268,1.566,0.47c1.041,0.434,2.232,0.771,3.291,1.381
			c0.547,0.282,1.095,0.563,1.633,0.839c0.549,0.253,1.036,0.668,1.541,0.989c0.499,0.346,0.98,0.679,1.438,0.998
			c0.49,0.318,0.823,0.637,1.146,0.927c1.301,1.164,2.168,1.938,2.168,1.938c0.953,0.852,1.035,2.314,0.182,3.269
			c-0.851,0.953-2.314,1.035-3.268,0.184C14.284,23.798,14.197,23.675,14.1,23.582z"/>
	</g>
</g>
</svg>
