<?xml version="1.0" encoding="utf-8"?>
<!-- Generator: Adobe Illustrator 16.0.0, SVG Export Plug-In . SVG Version: 6.00 Build 0)  -->
<!DOCTYPE svg PUBLIC "-//W3C//DTD SVG 1.1//EN" "http://www.w3.org/Graphics/SVG/1.1/DTD/svg11.dtd">
<svg version="1.1" id="Layer_1" xmlns="http://www.w3.org/2000/svg" xmlns:xlink="http://www.w3.org/1999/xlink" x="0px" y="0px"
	 width="52px" height="52px" viewBox="0 0 52 52" enable-background="new 0 0 52 52" xml:space="preserve">
<g>
	<linearGradient id="SVGID_1_" gradientUnits="userSpaceOnUse" x1="3.4541" y1="28.1816" x2="50" y2="28.1816">
		<stop  offset="0" style="stop-color:#1F2E4E"/>
		<stop  offset="1" style="stop-color:#142843"/>
	</linearGradient>
	<path opacity="0.7" fill="url(#SVGID_1_)" d="M30.841,12.65c-0.193,0-0.379,0.023-0.571,0.029c-0.328-0.436-0.741-0.819-1.15-1.234
		c-0.826-0.831-1.807-1.581-2.803-2.273c-2.017-1.355-4.194-2.313-5.853-2.916c-1.663-0.598-2.83-0.848-2.83-0.848
		c-0.292-0.061-0.599,0.1-0.705,0.389c-0.115,0.318,0.081,0.605,0.366,0.787c2.427,1.542,5.113,3.76,7.927,6.908
		c-1.078,0.331-2.109,0.765-3.097,1.271c-0.729-0.763-1.528-1.538-2.468-2.285c-1.188-0.945-2.526-1.826-3.896-2.613
		c-2.752-1.555-5.645-2.698-7.842-3.419C5.716,5.729,4.194,5.406,4.194,5.406c-0.297-0.06-0.607,0.105-0.707,0.4
		C3.375,6.128,3.575,6.414,3.867,6.587c7.238,4.3,11.008,7.705,14.143,11.021c-0.894,0.809-1.709,1.698-2.438,2.662
		c-0.013-0.014-0.024-0.025-0.037-0.039c-0.432-0.413-0.83-0.915-1.318-1.27c-0.475-0.376-0.957-0.759-1.438-1.142
		c-0.921-0.804-2.024-1.367-2.96-1.996c-0.48-0.3-0.989-0.521-1.444-0.766c-0.465-0.229-0.885-0.471-1.312-0.631
		c-1.642-0.729-2.84-1.041-2.84-1.041c-0.281-0.073-0.583,0.062-0.711,0.336c-0.143,0.309-0.009,0.673,0.298,0.816l0.016,0.008
		c0.001,0,5.163,4.636,9.374,9.779c-0.977,2.3-1.519,4.828-1.519,7.485c0,10.581,8.578,19.159,19.16,19.159
		C41.422,50.97,50,42.392,50,31.811C50,21.228,41.422,12.65,30.841,12.65z"/>
	<linearGradient id="SVGID_2_" gradientUnits="userSpaceOnUse" x1="22.4189" y1="15.4321" x2="41.6436" y2="48.5868">
		<stop  offset="0" style="stop-color:#1F2E4E"/>
		<stop  offset="1" style="stop-color:#142843"/>
	</linearGradient>
	<circle fill="url(#SVGID_2_)" cx="29.385" cy="27.446" r="19.159"/>
	<g>
		<linearGradient id="SVGID_3_" gradientUnits="userSpaceOnUse" x1="15.4414" y1="8.0962" x2="31.4824" y2="8.0962">
			<stop  offset="0" style="stop-color:#6084AA"/>
			<stop  offset="1" style="stop-color:#386691"/>
		</linearGradient>
		<path fill="url(#SVGID_3_)" d="M15.842,2.22c-0.286-0.182-0.482-0.469-0.367-0.787c0.106-0.289,0.413-0.45,0.706-0.389
			c0,0,1.166,0.25,2.829,0.848c1.658,0.603,3.836,1.561,5.853,2.916c0.996,0.692,1.976,1.443,2.803,2.273
			c0.413,0.42,0.832,0.806,1.162,1.247c0.335,0.441,0.688,0.788,0.953,1.251c0.273,0.442,0.525,0.848,0.75,1.205
			c0.157,0.316,0.294,0.594,0.407,0.822c0.219,0.451,0.344,0.707,0.344,0.707c0.48,0.988,0.071,2.18-0.919,2.662
			c-0.984,0.482-2.02-0.02-2.659-0.915C23.462,8.104,19.378,4.467,15.842,2.22z"/>
	</g>
	<g>
		<linearGradient id="SVGID_4_" gradientUnits="userSpaceOnUse" x1="2.001" y1="9.4282" x2="23.9775" y2="9.4282">
			<stop  offset="0" style="stop-color:#6084AA"/>
			<stop  offset="1" style="stop-color:#386691"/>
		</linearGradient>
		<path fill="url(#SVGID_4_)" d="M2.412,2.223C2.12,2.05,1.921,1.764,2.033,1.442c0.101-0.294,0.41-0.459,0.707-0.4
			c0,0,1.522,0.323,3.725,1.039c2.198,0.721,5.091,1.864,7.842,3.419c1.369,0.787,2.707,1.668,3.896,2.613
			c1.194,0.952,2.216,1.953,3.071,2.911c0.415,0.532,0.794,1.018,1.132,1.451c0.335,0.438,0.483,0.747,0.678,1.04
			c0.351,0.564,0.55,0.884,0.55,0.884c0.663,1.061,0.337,2.456-0.725,3.116s-2.28,0.201-3.118-0.725
			C15.67,12.24,12.226,8.054,2.412,2.223z"/>
	</g>
	<g>
		<linearGradient id="SVGID_5_" gradientUnits="userSpaceOnUse" x1="2" y1="16.6465" x2="18.4521" y2="16.6465">
			<stop  offset="0" style="stop-color:#6084AA"/>
			<stop  offset="1" style="stop-color:#386691"/>
		</linearGradient>
		<path fill="url(#SVGID_5_)" d="M14.066,23.008C9.758,16.811,2.373,10.183,2.371,10.183l-0.016-0.008
			c-0.307-0.144-0.441-0.507-0.298-0.816c0.128-0.273,0.43-0.409,0.711-0.336c0,0,1.197,0.311,2.839,1.041
			c0.427,0.16,0.848,0.402,1.312,0.631c0.455,0.244,0.965,0.465,1.444,0.766c0.936,0.628,2.039,1.191,2.959,1.996
			c0.48,0.383,0.963,0.766,1.438,1.142c0.489,0.355,0.886,0.857,1.318,1.27c0.423,0.437,0.829,0.857,1.216,1.259
			c0.42,0.408,0.684,0.785,0.943,1.133c1.05,1.395,1.749,2.323,1.749,2.323c0.769,1.022,0.563,2.471-0.458,3.241
			c-1.021,0.769-2.473,0.564-3.242-0.457C14.205,23.256,14.144,23.119,14.066,23.008z"/>
	</g>
</g>
</svg>
