<svg version="1.1" id="sign" xmlns="http://www.w3.org/2000/svg" xmlns:xlink="http://www.w3.org/1999/xlink" x="0px" y="0px" viewBox="382.5 0 200 144" enable-background="new 382.5 0 200 144" xml:space="preserve">
<g id="bus">
	<rect x="513.266" y="96.682" width="2.392" height="47.07"/>
	<g id="plate">
		<circle cx="514.724" cy="89.752" r="7.592"/>
		<path d="M514.724,81.66c-4.462,0-8.092,3.63-8.092,8.092s3.63,8.092,8.092,8.092s8.093-3.63,8.093-8.092
			S519.186,81.66,514.724,81.66z M514.724,82.66c3.134,0,5.794,2.045,6.729,4.867h-13.459
			C508.93,84.705,511.591,82.66,514.724,82.66z M514.724,96.844c-3.074,0-5.691-1.972-6.673-4.715h13.347
			C520.416,94.872,517.799,96.844,514.724,96.844z"/>
	</g>
	<rect x="510.417" y="108.221" width="8.062" height="13.362"/>
	<polygon points="518.478,108.248 510.417,108.248 511.079,107.691 517.815,107.669 	"/>
	<g id="grate">
		<rect x="511.245" y="109.27" width="2.596" height="0.664"/>
		<rect x="515.221" y="109.27" width="2.597" height="0.664"/>
		<rect x="511.245" y="110.596" width="2.596" height="0.662"/>
		<rect x="515.221" y="110.596" width="2.597" height="0.662"/>
		<rect x="511.245" y="111.92" width="2.596" height="0.662"/>
		<rect x="515.221" y="111.92" width="2.597" height="0.662"/>
		<rect x="511.245" y="113.245" width="2.596" height="0.663"/>
		<rect x="515.221" y="113.245" width="2.597" height="0.663"/>
		<rect x="511.245" y="114.57" width="2.596" height="0.662"/>
		<rect x="515.221" y="114.57" width="2.597" height="0.662"/>
		<rect x="511.245" y="115.896" width="2.596" height="0.662"/>
		<rect x="515.221" y="115.896" width="2.597" height="0.662"/>
		<rect x="511.245" y="117.221" width="2.596" height="0.662"/>
		<rect x="515.221" y="117.221" width="2.597" height="0.662"/>
		<rect x="511.245" y="118.546" width="2.596" height="0.663"/>
		<rect x="515.221" y="118.546" width="2.597" height="0.663"/>
		<rect x="511.245" y="119.871" width="2.596" height="0.662"/>
		<rect x="515.221" y="119.871" width="2.597" height="0.662"/>
	</g>
	<rect x="508.871" y="139.693" fill="#194C5B" width="11.374" height="4.307"/>
	<ellipse cx="514.558" cy="139.671" rx="5.688" ry="0.797"/>
</g>
<g id="lamp">
	<rect x="427.793" y="18.332" width="2.391" height="125.668"/>
	<rect x="423.398" y="139.693" fill="#194C5B" width="11.375" height="4.307"/>
	<ellipse cx="429.085" cy="139.671" rx="5.688" ry="0.797"/>
	<path d="M441.198,24.435c-1.88-0.209-3.725,0.711-5.318,2.664c-1.896,2.325-2.915,2.205-4.598,2.01
		c-0.273-0.032-0.565-0.062-0.871-0.087v-0.255h-2.927v1.656h2.927v-0.024c0.24,0.021,0.481,0.042,0.712,0.069
		c1.849,0.214,3.447,0.402,5.817-2.505c1.283-1.574,2.695-2.322,4.105-2.168c1.871,0.208,3.738,2.003,5.258,5.054l1.225-0.61
		C445.77,26.708,443.581,24.701,441.198,24.435z"/>
	<path id="shield" d="M460.349,31.63c0.222,3.653-4.742,6.181-11.305,6.579c-6.562,0.398-12.237-1.485-12.458-5.137
		c-0.222-3.653,4.483-9.108,11.045-9.507C454.194,23.166,460.127,27.977,460.349,31.63z"/>
	<path d="M459.518,32.135c0.22,2.684-4.498,5.258-10.533,5.749c-6.036,0.49-11.105-1.29-11.323-3.973
		c-0.218-2.684,4.498-5.258,10.534-5.748C454.23,27.672,459.3,29.452,459.518,32.135z"/>
	<path fill="#ECECE7" d="M449.472,31.647c-0.146-0.405-0.312-1.483-1.49-1.179c-0.729,0.188-0.722,0.921-0.722,1.473
		c0,0.013,0.008,0.022,0.008,0.035c-0.888,0.496-1.489,1.399-1.489,2.444c0,1.573,1.353,2.85,3.021,2.85
		c1.669,0,3.021-1.276,3.021-2.85C451.819,33.065,450.814,31.936,449.472,31.647z"/>
</g>
</svg>
