<svg version="1.1" id="totorosm" xmlns="http://www.w3.org/2000/svg" xmlns:xlink="http://www.w3.org/1999/xlink" x="0px" y="0px"
	 width="100px" height="125px" viewBox="0 0 100 125" enable-background="new 0 0 100 125" xml:space="preserve">
<path id="foot2" d="M77.033,122.085c0,2.222-4.293,4.022-9.592,4.022s-8.318-2.014-10.057-3.4c-1.547-1.234-5.712-2.573-4.486-3.249
	c1.754-0.966,11.426-1.395,14.543-1.395C72.74,118.063,77.033,119.863,77.033,122.085z">
<animateMotion  fill="remove" path="M 0 0 H -7 Z" dur="1s" repeatCount="indefinite" accumulate="none" additive="replace" calcMode="paced" restart="always">
		</animateMotion>
</path>
<path id="foot1" d="M47.718,125.009c-0.83,2.059-7.366,2.485-12.241,0.521c-4.875-1.962-4.517-5.706-4.669-7.923
	c-0.069-1.01-0.379-4.339-2.777-7.123c-1.277-1.484,10.372,5.844,13.104,6.944C46.012,119.391,48.548,122.948,47.718,125.009z">
<animateMotion  fill="remove" path="M 0 0 H 7 Z" dur="1s" repeatCount="indefinite" accumulate="none" additive="replace" calcMode="paced" restart="always">
		</animateMotion>
</path>
<path id="smbody" d="M80.062,53.2c0.442-0.527,0.812-2.577,0.905-3.273c0.273-1.951-1.152-2.393-3.266-3.279
	c-1.752-9.282-9.988-17.229-16.091-18.219c-0.86-0.139-0.786-0.245-1.632-0.25C59.904,15.1,56.072,9.152,54.041,4.804
	c-2.298,4.736-6.462,10.99-6.596,24.945c-0.005,0.542,0,1.069,0.002,1.602c-4.55,3.208-6.792,8.723-7.676,15.024
	c-0.165,1.177-0.215,2.341-0.202,3.49c-4.476,3.882-8.215,9.091-10.777,15.214c-6.331,2.802-9.832,12.165-9.423,23.128
	c0.412,11.047,6.34,20.588,8.833,23.154c4.858,5,15.437,8.291,17.144,8.572c7.768,1.277,14.367,0.854,19.716-0.605
	c12.095-3.299,21.116-16.979,23.331-32.781C90.199,73.663,86.777,61.505,80.062,53.2z"/>
<path id="smbelly" fill="#ECECE7" d="M62.609,96.83c-4.65,4.65,0.31,11.487,1.16,17.675c0.355,2.601-1.004,5.349,3.559,4.718
	c14.387-6.65,19.588-18.889,21.503-32.564c1.805-12.88-0.513-23.724-7.426-31.66c-7.165,1.244-14.327,5.188-9.978,14.099
	C74.598,75.598,70.613,88.824,62.609,96.83z">
<animateMotion  fill="remove" path="M 0 0 H 1 Z" dur="2s" repeatCount="indefinite" accumulate="none" additive="replace" calcMode="paced" restart="always">
		</animateMotion>
</path>
<path d="M64.465,29.65c-0.074-13.077-3.866-20.265-5.9-24.613c-2.297,4.736-6.459,10.99-6.593,24.943c-0.007,0.542,0,1.069,0,1.602
	c-4.55,3.21-6.793,8.724-7.675,15.026"/>
<path id="bag" d="M80.08,56.146c-1.817-0.317-10.029,3.62-12.245,6.23c-3.568-4.554-22.515-16.743-38.105-15.633
	C18.097,47.571,8.616,56.3,8.616,68.092c0,11.794,9.457,21.041,21.113,21.35c9.305,0.244,17.059-10.084,22.358-17.324
	c4.642-6.344,8.397-8.924,15.203-8.084c0.113,0.016,5.178,2.457,5.295,9.768c0.039,2.498,9.658-3.672,10.426-8.379
	C83.777,60.712,82.465,56.56,80.08,56.146z"/>
<ellipse id="smeyeball" cx="68.466" cy="45.488" rx="3.538" ry="5.627"/>
<ellipse id="smpupil" cx="66.9" cy="46.648" rx="1.393" ry="2.146"/>
</svg>
